<svg viewBox="0 0 368.5 481.89" xmlns="http://www.w3.org/2000/svg"><path d="m354.67 197.67c-.11-1.72-.84-2.91-2.9-3.29-2.42-.45-5.91-1.04-8.19-2-5.38-2.25-6.56-2.96-11.93-5.25-1.88-.8-3.86-1.39-5.82-2-4.86-1.5-5.37-1.84-10.18-3.48-3.46-1.18-5.68-1.18-5.25-5.49.06-.63-.16-1.28-.28-1.92-2.06-11.13-1.08-13.58-7.54-22.91-2.2-3.17-1.93-5.82-3.7-8.58-1.3-2.03-2.61-4.12-4.13-6.52-.66-1.03-2.34-3.97-3.82-7-1.58-3.23-4.94-6.56-4.59-7.78 1.21-4.22 2.86-9.88 3.29-11.54.28-1.08.27-2.23.4-3.35.17-1.2.81-2.32 1.16-3.53 1.53-5.17 2.96-10.36 4.45-15.54.53-1.84 1.11-3.68 1.71-5.5.4-1.2 1.08-2.35 1.29-3.58.67-3.92 2-8.9 2.81-12.78.36-1.7 1.54-3.23 2.37-4.83.48-.91 1.21-1.73 1.48-2.69 1.04-3.62 1.82-7.26 2.33-11.04.92-6.82 6.73-16.52 8.11-23.28.55-2.68-.12-4.45-2.45-5.35-2.28-.88-5.74-.32-8.16-.77-1.36-.25-3.83 1.03-5.2.79-4.3-.77-8.56-.65-12.89-.11-3.08.39-11.25.22-14.37.12-3.55-.12-2.08-.46-5.62-.69-2.45-.16-4.9-.22-7.34-.44-2.11-.19-6.2.31-8.3.26-1.46-.03-2.95.42-4.4.74-.86.19-1.71.45-2.55.7-.34.1-1.01.8-1.13 1.42-.27 1.33-.87 3.5-1.33 4.67-.74 1.9-1.54 3.79-2.13 5.74-1.35 4.44-2.41 8.97-3.91 13.35-1 2.93-1.91 6.06-2.76 9.28-1.17 4.43-3.23 9.02-4.26 13.47-.71 3.06-1.4 6.06-2.1 8.89-.8 3.2-4.75.33-7.98.05-.75-.06-1.48-.28-2.22-.45-7.15-1.7-14.11-3.47-21.47-4.4-1.79-.23-3.59-.43-5.38-.57-3.61-.29-7.22-.36-10.82.01-2.43.25-4.38.04-6.79.76-3.11.92-5.02.1-8.16.88-4.61 1.14-10.15 2.53-14.78 3.58-1.26.29-2.99 1.03-4.27 1.17-2.61.28-2.43-2.67-3.6-5.03-.43-.87-.88-1.76-1.1-2.7-1.43-5.87-2.47-7.91-3.89-13.82-1.45-6.02-4.37-11.98-5.3-18.06-1.02-6.66-2.85-12.44-5.85-18.88-.89-1.92-2.63-2.84-4.93-1.71-.73.36-1.69.36-2.54.34-4.19-.12-8.36 1.61-12.58.53-2.44-.63-5.15-.3-7.73-.27-7.21.08-16.31-.17-23.48.71-2.24.27-4.78-1.42-6.73-.59-3.05 1.3-6 .22-9.14.27-4.51.08-5.7 2.35-5.12 6.85.76 5.88 3.41 10.92 5.29 16.49 2.45 7.27 5.4 14.26 6.04 22.08.43 5.23 3.93 10.8 4.95 15.99 1.37 7.01 3.22 13.85 6.3 20.35 1.28 2.7 2.04 5.64 3.12 8.44 1.62 4.22 1.5 6.34 3.47 10.39 1.85 3.81-3.39 8.25-5.89 11.52-.39.52-.86.99-1.18 1.54-1.73 2.92-4.36 5.33-4.9 8.95-.13.9-.91 1.7-1.37 2.55-1.44 2.65-2.69 5.42-4.34 7.93-1.87 2.85-2.22 5.83-3.4 8.81-2.11 5.34-1.88 9.07-2.6 13.94-1.16 7.84.88 6.45-2.1 7.37-5.57 1.72-9.41 3.59-14.9 5.53-2.32.82-4.64 1.65-6.99 2.42-2.36.77-4.83 1.25-7.09 2.22-3.97 1.7-6.78 1.69-10.67 3.57-1.78.86-3.38 2.28-2.75 4.28 1.2 3.81 5.56 16.46 6.94 20.21.74 2.01 1.08 6.15 1.67 8.22.44 1.54.9 3.09 1.53 4.55.89 2.08 1.34 3.99 1.86 6.14 1.39 5.75.56 6.94 3.49 12.26.18.32.54 2.91.59 3.33.12.94.74 4 1.27 5.39.37.99.92 1.92 1.41 2.86 2.2 4.18 1.47 6.16 3.28 10.8.39 1 1.51.99 2.53 1.4.94.37 2.56.39 3.24-.18 3.53-3 9.05-3.68 13.11-5.2 3.79-1.42 12.04-3.82 15.91-5.07 2.75-.89 3.26-.82 4.32-.24.54.29 2.98 6.83 3.4 7.35 1.88 2.35 3.89 4.66 5.39 7.26 2.59 4.49 6.23 8.03 10.07 11.25 4.38 3.67 14.68 12.24 19.26 15.69 1.89 1.43 4.11 2.47 5.8 4.08 1.69 1.6 3.09 3.26 5.74 2.85.53-.08 1.16.47 1.74.75 2.9 1.42 3.57 1.93 6.52 3.23 3.95 1.75 2.23.94 6.14 2.76 1.51.7 1.23 5.7 2 7.07 1.72 3.08 1.57 3.92 2.63 7.31 2.76 8.85 4.62 18 9.08 26.27.3.56.48 1.21.64 1.83 2.21 8.56 4.3 17.16 6.64 25.68 1.74 6.34 3.68 12.64 5.78 18.87 1.21 3.59 2.86 7.02 2.53 10.95-.06.73.13 1.51.35 2.22 1.45 4.74 3.96 11.46 5.4 16.2.57 1.85.96 3.76 1.54 5.61.54 1.7 6.06 24.74 8.26 24.83 2.2 1.39 2.27-2.74 2.42-3.22.71-2.25 5.23-21.88 6.18-24.01 1.53-3.46 2.97-6.8 3.29-10.71.5-6.05 5.67-16.45 7.02-22.33.14-.63.4-1.25.72-1.8 2.25-3.78 2.18-7.95 2.95-12.24.45-2.53 1.1-5.23 2.47-7.33 2.25-3.43 3.07-7.33 4.41-11.07.54-1.51.07-3.01.59-4.52.37-1.08.68-2.19 1.08-3.26.37-1 .98-1.93 1.19-2.96.8-3.91 1.41-7.85 2.23-11.75.42-1.98 1.09-3.91 1.73-5.83.71-2.13 1.51-4.23 2.26-6.36.46-1.32.93-2.64 1.32-3.98.63-2.15 2.57-7.23 3.05-9.4.58-2.58.28-3.79 2.81-5.02 5.83-2.84 11.52-5.95 17.26-8.97 3.26-1.71 7.37-2.01 9.48-5.65.05-.08.17-.12.27-.18 4.68-2.92 9.89-6.41 14.29-9.73 2.41-1.82 5-3.61 6.78-5.97 2.65-3.51 5.36-7.62 7.69-11.37 2.33-3.74 6.75-10.08 9.09-13.81.18-.29.31-.55.41-.81.21.04.42.09.64.13 3.22.54 5.2.62 8.25 1.84 1.3.52 2.67.94 4.05 1.15 5.22.78 5.39 3.43 10.28 5.01 3.55 1.15 5.83 2.18 9.19 3.88 1.33.67 2.49 1.82 4.32.95.14-.41.4-.9.46-1.41.63-5.12 3.15-9.27 4.76-14.16.8-2.45 1.23-5.01 1.86-7.52 2.03-8.06 3.33-12.73 5.17-20.83.97-4.29 10.93-30.07 10.65-34.48zm-83.81-87.69c.67.39 1.19.76 1.57 1.22 1.99 2.41 3.79 4.2 5.5 7.1 1.24 2.09 5.43 5.24 6.63 7.35 1.54 2.71 2.1 5.36 3.76 7.73 2.95 4.22 3.9 9.18 7.06 13.2 4.05 5.14 4.59 12.07 7.74 17.69 3.38 6.04.71 4 2.42 10.57.29 1.13.47 2.29.83 4.06-2.56-.39-9.69-2.67-11.92-3.21-7.63-1.84-15.03-4.56-22.95-5.25-3.19-.28-6.28-1.51-9.45-2.14-2.64-.53-5.34-.8-8-1.26-3.41-.59-5.09 1.09-5.49-2.22-.59-4.93-1.12-4.64-2.66-9.25-.65-1.95-1.28-3.9-1.99-5.83-2.48-6.65-2.63-12.22-5.52-19.22.84-.57.72-.49 2.02-1.38 3.1-2.11 6.01-3.58 9.33-5.24 3.74-1.86 13.73-8.04 18.78-11.83 1.01-.75 1.82-1.46 2.35-2.09zm-76.87-36.03c1.65.17 5.99.89 7.56 1.34 5.81 1.67 8.17 1.05 14.09 2.27 1.57.33 3.39 1.39 6.79 2.61.8.29 4.25 1.88 4.95 2.27 3.05 1.69 7.88 3.32 13.02 5.04 7.93 2.66 13.36 7.62 17.62 10.88 1.96 1.5 3.96 2.97 5.85 4.56.95.8 2.84 2.8 3.87 3.96-3.6 3.54-17.25 10.67-21.01 13.48-2.48 1.86-5.16 2.41-7.89 3.92-1.51.83-1.88 2.84-4.73-4.26-.52-1.3-.7-2.74-1.31-3.99-3.19-6.49-6.2-13.09-9.79-19.36-3.64-6.33-10.94-12.69-16.72-17.16-1.43-1.11-3.13-1.91-4.79-2.68-2.44-1.15-7.62-2.56-7.51-2.88zm-8.17 2.39c1.4-1.05 4-.52 4.39-.14 5.13 2.1 10.2 3 13.96 6.02 2.75 2.2 6.33 6.47 9.04 8.54 4.79 3.65 6.7 9.3 9.59 14.59 2.48 4.53 4.57 9.28 6.74 13.97.53 1.15 3.08 3.67 3.3 4.93.42 2.41-3.29 4.18-5.77 4.75-1.36.31-2.69.78-4 1.27-3.44 1.29-6.87 2.39-10.62 2.65-4.18.29-8.29 1.42-12.47 1.86-4.7.5-9.32.02-14.27-.96.18-2.06.19-3.98.39-5.96.75-7.34 0-14.4.25-21.39.11-2.94-.15-5.77-.03-8.76.28-6.79-.75-13.9-.51-21.36zm.89 63.24c1.14.07 3.36.12 4.06.25 4.86.9 6.28-.38 11.06-1.12 2.95-.46 5.94-.56 8.91-.93 1.8-.23 3.61-.56 5.37-1.02 3.96-1.04 7.9-2.18 11.84-3.31 2.04-.59 6.16-2.21 7.16-.24 1.46 2.88 1.44 6.41 2.8 9.31.96 2.06.91 4.57 1.49 6.83.64 2.5 1.54 4.93 2.24 7.42 1.3 4.63.09 2.89 1.82 7.49-2.34 1.41-3.1.85-5.24.39-3.78-.81-7.47-1.16-11.28-1.76-3.1-.5-6.22-.53-9.28-1s-6.18-.35-9.27-.54c-5.76-.35-11.55-.22-17.42-.5-3.22-.16-4.13-1.04-4.71-4.24-.59-3.29-.21-6.59-.34-9.93-.05-1.14.56-5.84.8-7.1zm-10.78-62.98c1.36-.96 3.02-1.72 4.84-1.06.99 7.85 2.31 15 2.04 22.18-.16 4.18.14 8.45-.12 12.65-.36 5.74.23 11.55-.08 17.71-.09 1.8.04 3.73.02 5.57-3.79.59-7.71-.17-11.3-.54-9.66-1-19.28-2.3-28.9-3.63-1.88-.26-3.74-1.09-5.48-1.91-2.32-1.09-2.34-3.16-.43-4.73 1.35-1.12 1.56-6.01 2.67-7.86 1.86-3.12 3.89-6.16 5.81-9.24 1.5-2.4 2.94-4.83 4.19-7.36 1.24-2.5 2.88-4.77 4.74-6.85 1.37-1.53 2.87-2.96 4.43-4.3 2.27-1.96 6.68-4.74 9.05-6.41 2.62-1.85 5.9-2.34 8.53-4.2zm-50.82 80.16c1.65-6.48 3.08-14.84 4.99-20.67.1-.31.26-.6.41-.88 2.09-3.87 3.07-3.96 7.24-2.43 2.8 1.03 5.76 1.74 8.71 2.17 7.37 1.09 14.77 1.98 22.16 2.88 1.27.15 2.58-.09 3.87-.17 2.76-.16 6.51.12 9.35.79-.47 3 .34 6.62.31 10.26-.03 4.16-.83 8.35-.57 11.66-1.74.18-3.39.49-5.05.51-8.98.1-17.97-.02-26.95.22-7.46.2-14.54 2.37-22 2.51-.62.01-1.25-.1-2.41-.19.15-1.9-.49-4.97-.07-6.66zm-25.62-50.93c1.55-1.13 5.33-3.81 6.7-5.14 1.87-1.81 3.58-3.75 6.19-4.55.48-.15.94-.56 1.28-.96 2.14-2.52 7.26-4.65 10.9-6.47s5.81-3.36 8.86-4.45c2.53-.91 5.01-1.79 7.52-2.6.94-.3 1.83-.7 2.78-.98s3.42-1.23 4.39-1.48c2.46-.64 3.88-1.17 6.49-1.55 2.11-.31 4.49-1.23 6.55-1.61s3.02-.2 4.96-.44c.35-.04 1.32.14.78.41-1.66.83-3.63 2.08-5.41 3.28-2.27 1.53-4.29 4.33-6.83 5.63-2.65 1.36-5.67 6.53-7.3 9.19-2.24 3.67-4.61 7.26-6.78 10.97-.66 1.12-2.99 5.61-3.6 6.76-2.62 4.93-2.04 6.79-4.35 11.88-.43.95-1.29.51-2.03.51-1.35-.57-4.05-1.6-5.12-2.06-6.45-2.82-12.53-6.27-17.87-10.86-1.77-1.52-9.23-4.67-8.14-5.47zm-37.15 65.91c1.42-7.18 3.52-12.63 6.63-19.97 1.12-2.66 3.05-4.98 4.17-7.64 1.78-4.22 4.21-7.98 6.94-11.62 1.72-2.3 2.91-5.02 4.7-7.25 2.89-3.6 7.86-11.31 11.01-14.69 1.09-1.17 2.38-1.34 3.73-.18 1.89 1.61 3.74 4.34 5.8 5.7 3.86 2.56 7.82 4.99 11.82 7.33 2.33 1.36 4.91 2.28 7.19 3.7.8.49 4.43 1.04 4.48 2.04.05 1.11-.81 1.91-1.41 2.92-1.16 1.98-1.1 4.37-1.84 6.98-.48 1.66-.88 2.41-1.21 4.2-.35 1.89-.63 5.83-.85 7.76-.55 4.91-1.71 8.78-1.66 12.72 0 .2-.14.39-.37.97-3.07.53-6.19.79-9.48 1.26-1.7.24-3.37.64-5.05 1.02-1.79.4-3.57.85-5.35 1.28-1.89.46-3.79.67-5.61 1.31-6.39 2.25-12.76 4.61-19.42 6.02-2.92.62-11.1 2.36-14.47 3.31-.23-1.37.03-5.96.26-7.16zm41.83 120.32c-3.89-1.59-2.71-1.36-8.58-6.51-5.39-4.73-9.66-10.45-13.69-16.33-.16-.23-.12-.6-.19-.96.27-.21-3.07-6.24-2.83-6.24 4.59-.01 18.71-6.18 23.01-6.82 1.16-.17 2.26-.65 3.41-.94 3.02-.77 2.54-.67 5.58-1.37 2.2-.51 4.35-1.25 6.52-1.87.73-.21 4.05-.46 4.79-.48 3.12-.1 2.66-.08 3.65 3.63.69 2.59 2.09 8.42 2.69 10.85.42 1.71 1.7 3.34 1.96 4.73.58 3.14 1.01 5.68 2.48 8.44-2.96 1.92-4.26 1.45-7.14 3.3-3.53 2.27-15.41 7.58-18.79 10.08-1.21.89-1.26 1.13-2.86.48zm25.02-42.01c5.18-.69 11.06-1.05 16.76-1.7 5.95-.68 13-2.01 18.91-2.6s11.71-.11 17.07-.54c-.05 9.06-.34 16.46-1.23 25.18-2.02.05-1.61.61-3.61.83-3.29.37-7.4-1.55-10.6-.73-6.36 1.62-13.46 2.74-19.86 4.2-2.56.58-8.35 4.06-9.34 1.43-1.69-4.54-2.6-5.78-4.34-10.3-1.63-4.22-1.08-4.73-2.22-9.11-.1-.38-1.55-6.5-1.55-6.66zm22.39 69.12c-4.05-1.03-7.93-2.81-11.79-4.48-3.85-1.66-7.59-3.57-11.35-5.42-.38-.19-15.36-8.75-19.49-12.87-1.5-1.5 1.56-2.22 3.48-3.15 2.56-1.85 10.65-4.73 13.08-6.28 1.81-1.16 3.56-2.42 5.4-3.53 1.47-.89 3.5-1.47 4.42.02 1.76 2.83 8.73 17.49 10.77 20.1 3.79 4.83 12.29 12.96 17.07 16.64 1.87 1.44 2.13 3 .44 2.56-3.92-1.02-7.64-2.48-12.02-3.6zm31.44-10.98c-.03 3.5-1.16 7.99-1.73 11.5-.15.92-.06 1.88-.06 2.82 0 .78-3.24.2-4.2-.23-5.35-2.36-11.69-4.35-15.97-8.43-3.65-3.48-10.86-9.94-13.39-14.31-1.13-1.96-2.36-3.86-3.44-5.85-.38-.7-5.52-11.28-5.92-12.28 1.1-.31 5.92-1.52 6.72-1.77 2.04-.64 8.31-2.11 10.39-2.64.63-.16 1.23-.43 1.86-.54 3.74-.64 8.97-1.03 12.7-1.71 1.98-.36 10.83.18 11.55.51 1.2.54 1.06 6.9 1.5 9.77.32 2.14-.52 4.28-.47 6.42.08 3.07.94 4.14.79 7.21-.09 1.79-.19 3.58-.25 5.37-.04 1.06-.07 3.12-.08 4.18zm13.54 12.57c-2.06 1.71-9.89 3.13-10.26 2.95.07-3.3-.19-8.65.27-11.89 1.18-8.26 1.28-16.54.94-24.84-.08-1.83-.08-3.67-.16-5.5-.06-1.6-.41-6.5 1.28-6.36 6.85.6 17.45-.41 24.06 2.19 1.27.5 2.74.54 4.13.63 2.66.19 5.43.62 7.8 1.95.77.43 4.05.99 4.35 1.51.65 1.13-.43 4.55-1.27 5.26-3 2.55-3.09 5.45-5.62 8.34-2.97 3.39-5.4 8.44-8.04 12.09-2.43 3.37-5.43 6.26-8.83 8.65-2.33 1.64-6.59 3.3-8.65 5.02zm-9.53-68.25c.33-3.3 1.37-6.43 4.6-6.21 12.92.88 26.95.25 39.9 1.88 3.01.38 4.44.96 6.77 1.44.62.13 1.82 1.1 1.71 1.42-.94 2.94-.23 3.91-1.46 6.73-2.83 6.52-3.75 11.9-6.45 18.48-.64 1.55-2.18.36-3.77-.02-1.26-.3-5.85-.85-6.96-1.46-4.6-2.49-6.53-1.39-11.49-2.27-4.98-.89-10.11-1-15.18-1.38-1.6-.12-5.6.24-7.58.14-.12-1.55-.39-4.33-.36-6.1.08-4.97-.22-7.7.27-12.65zm71.63 45.5c-1.17 2.93-8.87 6.86-11.01 7.86-3.9 1.82-7.64 3.99-11.51 5.89-4.35 2.14-8.74 4.19-13.15 6.19-5.72 2.6-11.8 3.11-18 3.07-2.03-.01 3.15-1.73 8.51-8.57 2.14-2.73 5.16-5.42 7.24-8.19 2.11-2.82 3.28-5.72 5.37-8.56 1.2-1.64 3.84-6.76 5.03-8.41 2.25-3.15 3.48-2.56 7.1-1.25 5.8 2.09 11.52 4.3 16.39 8.26 1.18.96 4.76 1.86 4.02 3.72zm28.61-31.5c-2.73 3.92-4.94 7.06-6.86 11.46-1.26 2.89-3.88 5.99-6.12 8.21-4.52 4.47-4.79 4.5-9.67 8.59-1.06.89-2.14-.37-3.77-1.43-3.38-2.44-6.17-4.88-9.33-6.64-3.66-2.04-7.66-3.47-11.48-5.23-1.55-.71-2.06-1.37-3.65-2.05.54-2.01.46-1.25 1.19-2.89 1.46-3.25 1.95-6.41 3.16-9.75 1.33-3.65 1.79-6.22 2.95-9.98.3-.96 1.19-4.02 1.58-4.46.49-.55 1.26-1.01 2.08-1.09 1.2-.11 2.53.95 3.29 1.05 2.25.28 4.51.57 6.73 1.02 4.97 1.01 9.99.9 14.86 2.28 4.02 1.14 7.82 3.02 11.78 4.38 1.63.56 4.51 1.17 6.14 1.75-1.06 1.81-2.44 4.13-2.9 4.78zm54.04-41.2c-.41 1.9-1.06 3.75-1.49 5.64-.39 1.67-.64 3.36-.94 5.05-.18 1.06-.11 2.23-.53 3.18-1.01 2.32-.83 1.28-.65 3.84.04.61-.15 1.32-.45 1.87-2.52 4.66-3.17 9.82-4.2 14.9-.55 2.71-1.58 5.35-2.59 7.95-.63 1.62-2.83 2.25-4.4 1.91-1.37-.29-2.78-.59-4.05-1.15-5.02-2.19-4.04-2.73-9.16-4.47-3.05-1.04-6.27-1.72-9.46-2.19-8.98-1.3-17.35-4.56-25.74-7.75-7.61-2.9-15.42-3.94-23.52-4.86-4.39-.5-11.95-2.55-13.85-2.91-8.77-1.67-17.44-2.99-26.32-3.57-8.44-.55-17.72-.08-26.14-.42-1.62-.06-3.78.08-5.39-.1-9.78-1.07-18.55-.76-28.07 1.31-1.26.27-2.57.34-3.86.44-3.98.33-7.97.64-11.95.93-.64.05-9.76 1.34-10.35 1.49-4.22 1.04-8.4 1.16-12.64 2.08-4.95 1.08-9.94 1.98-14.94 2.83-2.12.36-4.47.94-6.43 1.64-4.17 1.5-4.62 2.08-10.18 3.02-1 .11-1.83.19-2.65.29-4.82.6-20.23 6.26-24.96 7.29-2.9.63-5.57 2.26-8.37 3.35-1.9.74-4.78 1.89-6.77 2.32-.9.2-.82.66-1.49.06-2.56-2.28-1-3.06-2.33-6.22-.97-2.29-1.19-3.71-1.8-5.66-.95-3.08-1.54-5.36-2.54-8.46-.5-1.55-.91-2.98-1.25-4.33-1.65-6.51-2.45-11.98-4.97-19.31-1.5-4.37-6.97-21.54-8.05-26.04-.66-2.73.86-2.39 3.43-3.46 1.86-.78 3.92-1.07 5.84-1.74 2.64-.91 10.47-2.83 13.08-3.82 1.18-.45 2.35-.98 3.57-1.27 5.79-1.39 5.2-.05 10.39-3.17 1.48-.89 6.77-3.31 9.48-4.24 4.16-1.43 12.45-2.18 16.65-3.5 3.8-1.19 7.44-2.66 11.27-3.76 1.74-.5 3.51-.91 5.28-1.29.94-.21 2.19.04 2.85-.49 2.2-1.74 4.86-1.69 7.36-2.24 1.97-.43 3.95-.83 5.94-1.2.63-.12 5.18.14 6.89-.15 5.36-.9 10.64-2.1 15.98-2.81 3.13-.41 6.29-.66 9.49-.56 1.57.05 7.75-1.41 9.11-1.14 2.77.56 5.55.7 8.32.65 3.01-.05 6.03-.31 9.04-.46 3.11-.15 6.24.08 9.36.15 1.19.03 2.43.31 3.55.06 6.26-1.42 12.39-.03 18.51.84 1.92.28 3.87.32 5.81.49 5.7.49 11.47-.4 17.09.58 5.07.88 10 1.65 14.95 3.15 2.71.82 5.83 1.05 8.74.52.62-.11 1.31-.07 1.94.05 6.76 1.33 13.54 2.61 20.28 4.07 5.91 1.28 11.72 3.82 17.58 5.29 2.17.54 4.21 1.88 6.38 2.08 2.69.24 5.01 1.17 7.32 2.3 2.32 1.14 5.24.19 7.69.99 3.9 1.27 7.75 2.36 11.57 3.83 5.34 2.05 8.59 3.58 13.88 5.75 3.39 1.4 5.79 1.51 9.19 2.9 3.35 1.37-4.58 24.11-5.33 27.61zm-139.21-5.48c0 3.13-2.62 1.78-3.99 2.35-2.29.95-4.71 1.25-7.43.64-1.42-.32-2.96-.06-4.45-.06-.21 0-4.3-.03-9.49-.42-1.58-.12-2.59.35-4.57-.1-.65-4.62-1-5.1-.53-11.22s-.91-12.7-.16-17.69c-.02-3.52.02-5.76.23-6.98.6-3.48 4.18-1.83 7.5-1.92 3.97-.11 6.24-.62 10.34-.38 2.86.17 5.45.65 8.32.96 1.98.21 4.22-.23 4.08.9-.15 1.13-.46 1.7-.43 2.21.04.89-.81 1.13-2.7.87-.85-.11-4.39.09-5.23-.14-2.24-.6-6.82-.53-9.26.04-3.57.83-4.86-1.95-7.65.6-1.13 1.03.31 2.54.05 3.89-.29 1.48-.72 3.17-.25 4.73.16.51-.53 1.68-.07 1.86 2.12.83 6.72.13 11.68-.08.75-.03 1.51.13 2.25.26 3.49.61 3.65-.04 3.17 3.78-1.26.44-3.48.23-4.77.54-.79.19-1.69.18-2.49 0-2.99-.64-3.41.07-5.88-.26-2.29-.31-3.63.13-4.07 2.71-.07.43-.6 4.76-.51 5.18.53 2.59.73 7.11 3.1 6.17 3.37-1.33 5.97.2 10.01-.49 1.45-.25 3 .16 4.51.18 1.28.02 2.6.11 3.83-.15 2.05-.44 4.85-1.13 4.85 2zm63.88 5.02c.06 2.2.28 4.39.44 6.88-1.92-.17-3.43-.42-4.7-.59.09-4.71.03-9.02-.32-13.48-.35-4.38-.56-11.67-.44-16.27-1.91 2.02-2.98 4.43-4.08 5.93-.93 1.28-2.05 2.42-3.04 3.66-2.07 2.61-5.98 8.49-8.08 11.29-2.36.11-2.13-2.54-2.87-5.25-1.08-3.94-2.16-9.9-3.22-13.85-.37-1.36-.71-2.73-1.2-4.04-.77-2.04-.32-3.84-1.44-2.02-2.02 3.3-4.56 8.21-6.23 11.7-1.95 4.07-5.47 9.41-7.38 13.49-.16.34-.45 1.18-.71 1.42-.92.84-2.33.47-3.83-.15-.14-1.13.63-2.4 1.04-3.75 1.07-3.48 3.44-5.31 4.45-7.62 1.42-3.25 2.93-6.49 4.78-9.5 1.91-3.1 4.86-7.68 7.05-10.86 2.31-3.36 2.99-4.4 5.25-.95.81 1.23 1.14 5.8 1.55 7.23.85 3.02 1.53 8.1 2.39 11.11.32 1.14 1.05 2.16 1.77 3.59 2.14-3.04 5.1-8.24 7.34-11.12 1.85-2.37 4.98-5.37 7.33-7.09 1.14-.84 1.22-.73 2.54-1.33.57 2.74.76 5.11.88 7.57.35 7.66.5 16.33.72 23.99zm-122.97-23.79c.73 4.66 2.06 15.77 2.69 20.57.04.31.11 1.38.01 1.69-.35 1.1-.17 1.33-1.84 1.23-1.47-.09-2.39-.62-2.54-1.97-.2-1.83-1.17-11-1.49-12.81-.57-3.26-1.75-3.51-4.71-2.24-2.06.88-4.34.38-6.51.97-2.47.68-4.98 1.26-7.46 1.92-1.77.47-3.21-.2-5.58.65 1.01 4.17 1.33 9.69 2.1 13.7.08.42.34 1.83.41 2.25.18 1.19.39 1.75-1.17 1.89-1.05.09-2.33.32-3.16-.47-.59-.56-.67-2.79-.82-3.74-.86-5.56-1.77-12.62-2.68-18.16-.35-2.09-.13-2.54-.96-4.52-.91-2.17-1.9-6.84-1.6-8.95.23-1.61 1.91-1.08 2.09-1.18.18-.09.4-.1 1.06-.25.27.78.7 1.59.84 2.44.65 4.16.94 4.99 1.72 9.13.27 1.45 1.19 3.05 2.58 2.89 1.93-.23 3.88-.42 5.77-.85 4.63-1.08 9.29-1.29 13.9-2.45 2.89-.73 3.43-2.48 2.73-5.31-1.02-4.07-.02-2.78-.55-6.72-.36-2.65-1.31-2.27 1.84-3.3 2.02 0 1.87 1.06 1.92 2.27.22 5.25.59 6.02 1.42 11.35zm178.94 8.45c.34.2.67.63.18 1.85s-.81 3-3.71 1.1c-1.16-.77-5.62-1.66-6.66-2.59-.81-.73-2.83-1.49-3.85-1.56-1.4-.09-1.78.81-2.34 2.16-1.92 4.59-5.33 13.51-5.6 15.64-.5 3.98-2.94 9.05-3.47 12.85-.08.54-1.43.32-2.11.25-.67-.07-2.11-.08-2.47-1.27-.21-.71.44-2.69.55-3.01.48-1.4 1.06-2.85 1.14-4.3.24-4.28 5.06-14.81 6.14-18.96.76-2.92 2.44-4.06-.4-4.95-2.23-.7-5.08-1.04-7.23-1.98-2.1-.91-4.31-1.03-6.02-2.46.91-2.17.89-3.81 2.4-4.07.81-.14 2.74.51 3.96.81 3.16.76 4.9 1.58 7.96 2.48.58.17 3.28.3 4.66.83 2.3.88 5.5 2.63 7.7 3.62.88.4 5.48 2.17 6.38 2.54 1.48.61 1.95.53 2.79 1.02zm-240.89-10.01c.09 1.35-.22 3.6-.16 4.96.13 3.31-.6 5.19-.86 8.49-.37 4.63-.34 9.27-1.82 13.76-.8 2.44-1.4 6.17-2.12 8.64-1.18 4.04-1.31 4.06-4.52 1.38-4.74-3.97-7.84-10.31-11.88-14.77-2.01-2.23-6.15-7.38-8.18-9.59-.88-.96-3.43-3.79-1.87-4.17 1.58-.39 2.38-2.08 3.54-.88 1.5 1.55 4.52 5.01 5.9 6.67 2.9 3.48 7.97 9.84 11 13.21 1.18 1.31.88 2.23 2.77 3.94 1.74-4.39 2.16-7.37 2.64-11.19.71-5.76.47-9.1 1.28-15 .23-1.68-.16-3.4.5-4.98.21-.5 2.12-.89 2.72-.9.36-.01 1.05-.04 1.08.46z"/></svg>